<?xml version="1.0" encoding="UTF-8" standalone="no"?><svg xmlns="http://www.w3.org/2000/svg" xmlns:xlink="http://www.w3.org/1999/xlink" contentScriptType="application/ecmascript" contentStyleType="text/css" height="391px" preserveAspectRatio="none" style="width:727px;height:391px;" version="1.1" viewBox="0 0 727 391" width="727px" zoomAndPan="magnify"><defs><filter height="300%" id="f1jl6udxh02n7c" width="300%" x="-1" y="-1"><feGaussianBlur result="blurOut" stdDeviation="2.0"/><feColorMatrix in="blurOut" result="blurOut2" type="matrix" values="0 0 0 0 0 0 0 0 0 0 0 0 0 0 0 0 0 0 .4 0"/><feOffset dx="4.0" dy="4.0" in="blurOut2" result="blurOut3"/><feBlend in="SourceGraphic" in2="blurOut3" mode="normal"/></filter></defs><g><!--class dyvs--><rect fill="#FEFECE" filter="url(#f1jl6udxh02n7c)" height="48" id="dyvs" style="stroke: #A80036; stroke-width: 1.5;" width="192" x="93" y="116"/><ellipse cx="108" cy="132" fill="#ADD1B2" rx="11" ry="11" style="stroke: #A80036; stroke-width: 1.0;"/><path d="M110.9688,137.6406 Q110.3906,137.9375 109.75,138.0781 Q109.1094,138.2344 108.4063,138.2344 Q105.9063,138.2344 104.5781,136.5938 Q103.2656,134.9375 103.2656,131.8125 Q103.2656,128.6875 104.5781,127.0313 Q105.9063,125.375 108.4063,125.375 Q109.1094,125.375 109.75,125.5313 Q110.4063,125.6875 110.9688,125.9844 L110.9688,128.7031 Q110.3438,128.125 109.75,127.8594 Q109.1563,127.5781 108.5313,127.5781 Q107.1875,127.5781 106.5,128.6563 Q105.8125,129.7188 105.8125,131.8125 Q105.8125,133.9063 106.5,134.9844 Q107.1875,136.0469 108.5313,136.0469 Q109.1563,136.0469 109.75,135.7813 Q110.3438,135.5 110.9688,134.9219 L110.9688,137.6406 Z "/><text fill="#000000" font-family="sans-serif" font-size="12" lengthAdjust="spacingAndGlyphs" textLength="160" x="122" y="136.1543">dynamodb-virtual-schema</text><line style="stroke: #A80036; stroke-width: 1.5;" x1="94" x2="284" y1="148" y2="148"/><line style="stroke: #A80036; stroke-width: 1.5;" x1="94" x2="284" y1="156" y2="156"/><!--class cdf--><rect fill="#FEFECE" filter="url(#f1jl6udxh02n7c)" height="48" id="cdf" style="stroke: #A80036; stroke-width: 1.5;" width="276" x="320" y="116"/><ellipse cx="335" cy="132" fill="#ADD1B2" rx="11" ry="11" style="stroke: #A80036; stroke-width: 1.0;"/><path d="M337.9688,137.6406 Q337.3906,137.9375 336.75,138.0781 Q336.1094,138.2344 335.4063,138.2344 Q332.9063,138.2344 331.5781,136.5938 Q330.2656,134.9375 330.2656,131.8125 Q330.2656,128.6875 331.5781,127.0313 Q332.9063,125.375 335.4063,125.375 Q336.1094,125.375 336.75,125.5313 Q337.4063,125.6875 337.9688,125.9844 L337.9688,128.7031 Q337.3438,128.125 336.75,127.8594 Q336.1563,127.5781 335.5313,127.5781 Q334.1875,127.5781 333.5,128.6563 Q332.8125,129.7188 332.8125,131.8125 Q332.8125,133.9063 333.5,134.9844 Q334.1875,136.0469 335.5313,136.0469 Q336.1563,136.0469 336.75,135.7813 Q337.3438,135.5 337.9688,134.9219 L337.9688,137.6406 Z "/><text fill="#000000" font-family="sans-serif" font-size="12" lengthAdjust="spacingAndGlyphs" textLength="244" x="349" y="136.1543">virtual-schema-common-document-files</text><line style="stroke: #A80036; stroke-width: 1.5;" x1="321" x2="595" y1="148" y2="148"/><line style="stroke: #A80036; stroke-width: 1.5;" x1="321" x2="595" y1="156" y2="156"/><!--class cd--><rect fill="#FEFECE" filter="url(#f1jl6udxh02n7c)" height="48" id="cd" style="stroke: #A80036; stroke-width: 1.5;" width="247" x="199.5" y="224"/><ellipse cx="214.5" cy="240" fill="#ADD1B2" rx="11" ry="11" style="stroke: #A80036; stroke-width: 1.0;"/><path d="M217.4688,245.6406 Q216.8906,245.9375 216.25,246.0781 Q215.6094,246.2344 214.9063,246.2344 Q212.4063,246.2344 211.0781,244.5938 Q209.7656,242.9375 209.7656,239.8125 Q209.7656,236.6875 211.0781,235.0313 Q212.4063,233.375 214.9063,233.375 Q215.6094,233.375 216.25,233.5313 Q216.9063,233.6875 217.4688,233.9844 L217.4688,236.7031 Q216.8438,236.125 216.25,235.8594 Q215.6563,235.5781 215.0313,235.5781 Q213.6875,235.5781 213,236.6563 Q212.3125,237.7188 212.3125,239.8125 Q212.3125,241.9063 213,242.9844 Q213.6875,244.0469 215.0313,244.0469 Q215.6563,244.0469 216.25,243.7813 Q216.8438,243.5 217.4688,242.9219 L217.4688,245.6406 Z "/><text fill="#000000" font-family="sans-serif" font-size="12" lengthAdjust="spacingAndGlyphs" textLength="215" x="228.5" y="244.1543">virtual-schema-common-document</text><line style="stroke: #A80036; stroke-width: 1.5;" x1="200.5" x2="445.5" y1="256" y2="256"/><line style="stroke: #A80036; stroke-width: 1.5;" x1="200.5" x2="445.5" y1="264" y2="264"/><!--class cj--><rect fill="#FEFECE" filter="url(#f1jl6udxh02n7c)" height="48" id="cj" style="stroke: #A80036; stroke-width: 1.5;" width="209" x="218.5" y="332"/><ellipse cx="233.5" cy="348" fill="#ADD1B2" rx="11" ry="11" style="stroke: #A80036; stroke-width: 1.0;"/><path d="M236.4688,353.6406 Q235.8906,353.9375 235.25,354.0781 Q234.6094,354.2344 233.9063,354.2344 Q231.4063,354.2344 230.0781,352.5938 Q228.7656,350.9375 228.7656,347.8125 Q228.7656,344.6875 230.0781,343.0313 Q231.4063,341.375 233.9063,341.375 Q234.6094,341.375 235.25,341.5313 Q235.9063,341.6875 236.4688,341.9844 L236.4688,344.7031 Q235.8438,344.125 235.25,343.8594 Q234.6563,343.5781 234.0313,343.5781 Q232.6875,343.5781 232,344.6563 Q231.3125,345.7188 231.3125,347.8125 Q231.3125,349.9063 232,350.9844 Q232.6875,352.0469 234.0313,352.0469 Q234.6563,352.0469 235.25,351.7813 Q235.8438,351.5 236.4688,350.9219 L236.4688,353.6406 Z "/><text fill="#000000" font-family="sans-serif" font-size="12" lengthAdjust="spacingAndGlyphs" textLength="177" x="247.5" y="352.1543">virtual-schema-common-java</text><line style="stroke: #A80036; stroke-width: 1.5;" x1="219.5" x2="426.5" y1="364" y2="364"/><line style="stroke: #A80036; stroke-width: 1.5;" x1="219.5" x2="426.5" y1="372" y2="372"/><!--class edml-java--><rect fill="#FEFECE" filter="url(#f1jl6udxh02n7c)" height="48" id="edml-java" style="stroke: #A80036; stroke-width: 1.5;" width="91" x="481.5" y="224"/><ellipse cx="496.5" cy="240" fill="#ADD1B2" rx="11" ry="11" style="stroke: #A80036; stroke-width: 1.0;"/><path d="M499.4688,245.6406 Q498.8906,245.9375 498.25,246.0781 Q497.6094,246.2344 496.9063,246.2344 Q494.4063,246.2344 493.0781,244.5938 Q491.7656,242.9375 491.7656,239.8125 Q491.7656,236.6875 493.0781,235.0313 Q494.4063,233.375 496.9063,233.375 Q497.6094,233.375 498.25,233.5313 Q498.9063,233.6875 499.4688,233.9844 L499.4688,236.7031 Q498.8438,236.125 498.25,235.8594 Q497.6563,235.5781 497.0313,235.5781 Q495.6875,235.5781 495,236.6563 Q494.3125,237.7188 494.3125,239.8125 Q494.3125,241.9063 495,242.9844 Q495.6875,244.0469 497.0313,244.0469 Q497.6563,244.0469 498.25,243.7813 Q498.8438,243.5 499.4688,242.9219 L499.4688,245.6406 Z "/><text fill="#000000" font-family="sans-serif" font-size="12" lengthAdjust="spacingAndGlyphs" textLength="59" x="510.5" y="244.1543">edml-java</text><line style="stroke: #A80036; stroke-width: 1.5;" x1="482.5" x2="571.5" y1="256" y2="256"/><line style="stroke: #A80036; stroke-width: 1.5;" x1="482.5" x2="571.5" y1="264" y2="264"/><!--class s3-document-files-virtual-schema--><rect fill="#FEFECE" filter="url(#f1jl6udxh02n7c)" height="48" id="s3-document-files-virtual-schema" style="stroke: #A80036; stroke-width: 1.5;" width="238" x="6" y="8"/><ellipse cx="21" cy="24" fill="#ADD1B2" rx="11" ry="11" style="stroke: #A80036; stroke-width: 1.0;"/><path d="M23.9688,29.6406 Q23.3906,29.9375 22.75,30.0781 Q22.1094,30.2344 21.4063,30.2344 Q18.9063,30.2344 17.5781,28.5938 Q16.2656,26.9375 16.2656,23.8125 Q16.2656,20.6875 17.5781,19.0313 Q18.9063,17.375 21.4063,17.375 Q22.1094,17.375 22.75,17.5313 Q23.4063,17.6875 23.9688,17.9844 L23.9688,20.7031 Q23.3438,20.125 22.75,19.8594 Q22.1563,19.5781 21.5313,19.5781 Q20.1875,19.5781 19.5,20.6563 Q18.8125,21.7188 18.8125,23.8125 Q18.8125,25.9063 19.5,26.9844 Q20.1875,28.0469 21.5313,28.0469 Q22.1563,28.0469 22.75,27.7813 Q23.3438,27.5 23.9688,26.9219 L23.9688,29.6406 Z "/><text fill="#000000" font-family="sans-serif" font-size="12" lengthAdjust="spacingAndGlyphs" textLength="206" x="35" y="28.1543">s3-document-files-virtual-schema</text><line style="stroke: #A80036; stroke-width: 1.5;" x1="7" x2="243" y1="40" y2="40"/><line style="stroke: #A80036; stroke-width: 1.5;" x1="7" x2="243" y1="48" y2="48"/><!--class google-cloud-storage-document-files-virtual-schema--><rect fill="#FEFECE" filter="url(#f1jl6udxh02n7c)" height="48" id="google-cloud-storage-document-files-virtual-schema" style="stroke: #A80036; stroke-width: 1.5;" width="357" x="279.5" y="8"/><ellipse cx="294.5" cy="24" fill="#ADD1B2" rx="11" ry="11" style="stroke: #A80036; stroke-width: 1.0;"/><path d="M297.4688,29.6406 Q296.8906,29.9375 296.25,30.0781 Q295.6094,30.2344 294.9063,30.2344 Q292.4063,30.2344 291.0781,28.5938 Q289.7656,26.9375 289.7656,23.8125 Q289.7656,20.6875 291.0781,19.0313 Q292.4063,17.375 294.9063,17.375 Q295.6094,17.375 296.25,17.5313 Q296.9063,17.6875 297.4688,17.9844 L297.4688,20.7031 Q296.8438,20.125 296.25,19.8594 Q295.6563,19.5781 295.0313,19.5781 Q293.6875,19.5781 293,20.6563 Q292.3125,21.7188 292.3125,23.8125 Q292.3125,25.9063 293,26.9844 Q293.6875,28.0469 295.0313,28.0469 Q295.6563,28.0469 296.25,27.7813 Q296.8438,27.5 297.4688,26.9219 L297.4688,29.6406 Z "/><text fill="#000000" font-family="sans-serif" font-size="12" lengthAdjust="spacingAndGlyphs" textLength="325" x="308.5" y="28.1543">google-cloud-storage-document-files-virtual-schema</text><line style="stroke: #A80036; stroke-width: 1.5;" x1="280.5" x2="635.5" y1="40" y2="40"/><line style="stroke: #A80036; stroke-width: 1.5;" x1="280.5" x2="635.5" y1="48" y2="48"/><!--class …--><rect fill="#FEFECE" filter="url(#f1jl6udxh02n7c)" height="48" id="…" style="stroke: #A80036; stroke-width: 1.5;" width="44" x="672" y="8"/><ellipse cx="687" cy="24" fill="#ADD1B2" rx="11" ry="11" style="stroke: #A80036; stroke-width: 1.0;"/><path d="M689.9688,29.6406 Q689.3906,29.9375 688.75,30.0781 Q688.1094,30.2344 687.4063,30.2344 Q684.9063,30.2344 683.5781,28.5938 Q682.2656,26.9375 682.2656,23.8125 Q682.2656,20.6875 683.5781,19.0313 Q684.9063,17.375 687.4063,17.375 Q688.1094,17.375 688.75,17.5313 Q689.4063,17.6875 689.9688,17.9844 L689.9688,20.7031 Q689.3438,20.125 688.75,19.8594 Q688.1563,19.5781 687.5313,19.5781 Q686.1875,19.5781 685.5,20.6563 Q684.8125,21.7188 684.8125,23.8125 Q684.8125,25.9063 685.5,26.9844 Q686.1875,28.0469 687.5313,28.0469 Q688.1563,28.0469 688.75,27.7813 Q689.3438,27.5 689.9688,26.9219 L689.9688,29.6406 Z "/><text fill="#000000" font-family="sans-serif" font-size="12" lengthAdjust="spacingAndGlyphs" textLength="12" x="701" y="28.1543">…</text><line style="stroke: #A80036; stroke-width: 1.5;" x1="673" x2="715" y1="40" y2="40"/><line style="stroke: #A80036; stroke-width: 1.5;" x1="673" x2="715" y1="48" y2="48"/><!--link dyvs to cd--><path d="M234.05,176.64 C253.66,192.15 276.09,209.89 293.52,223.68 " fill="none" id="dyvs-cd" style="stroke: #A80036; stroke-width: 1.0;"/><polygon fill="none" points="229.42,181.9,218.08,164,238.1,170.92,229.42,181.9" style="stroke: #A80036; stroke-width: 1.0;"/><!--link cdf to cd--><path d="M412.91,176.4 C393.09,191.97 370.35,209.82 352.7,223.68 " fill="none" id="cdf-cd" style="stroke: #A80036; stroke-width: 1.0;"/><polygon fill="none" points="408.65,170.85,428.71,164,417.3,181.86,408.65,170.85" style="stroke: #A80036; stroke-width: 1.0;"/><!--link cd to cj--><path d="M323,292.02 C323,305.58 323,320.04 323,331.68 " fill="none" id="cd-cj" style="stroke: #A80036; stroke-width: 1.0;"/><polygon fill="none" points="316,292,323,272,330,292,316,292" style="stroke: #A80036; stroke-width: 1.0;"/><!--link cd to edml-java--><path d="M446.52,248 C453.79,248 461.06,248 468.33,248 " fill="none" id="cd-edml-java" style="stroke: #A80036; stroke-width: 1.0;"/><polygon fill="#FFFFFF" points="481.41,248,475.41,244,469.41,248,475.41,252,481.41,248" style="stroke: #A80036; stroke-width: 1.0;"/><!--link s3-document-files-virtual-schema to cdf--><path d="M216.6,62.16 C269.85,79.11 336.01,100.17 385.6,115.95 " fill="none" id="s3-document-files-virtual-schema-cdf" style="stroke: #A80036; stroke-width: 1.0;"/><polygon fill="none" points="214.19,68.74,197.26,56,218.44,55.4,214.19,68.74" style="stroke: #A80036; stroke-width: 1.0;"/><!--link google-cloud-storage-document-files-virtual-schema to cdf--><path d="M458,76.02 C458,89.58 458,104.04 458,115.68 " fill="none" id="google-cloud-storage-document-files-virtual-schema-cdf" style="stroke: #A80036; stroke-width: 1.0;"/><polygon fill="none" points="451,76,458,56,465,76,451,76" style="stroke: #A80036; stroke-width: 1.0;"/><!--link … to cdf--><path d="M654.28,55.86 C654.18,55.91 654.09,55.95 654,56 C609.16,78.28 556.88,100.23 517.59,115.95 " fill="none" id="…-cdf" style="stroke: #A80036; stroke-width: 1.0;"/><polygon fill="none" points="650.91,49.72,671.84,46.38,657.56,62.04,650.91,49.72" style="stroke: #A80036; stroke-width: 1.0;"/><!--
@startuml
class dyvs as "dynamodb-virtual-schema"
class cdf as "virtual-schema-common-document-files"
class cd as "virtual-schema-common-document"
class cj as "virtual-schema-common-java"

dyvs <|- - cd
cdf <|- - cd
cd <|- - cj
cd -o "edml-java"
"s3-document-files-virtual-schema" <|- - cdf
"google-cloud-storage-document-files-virtual-schema" <|- - cdf
"…" <|- - cdf
@enduml

PlantUML version 1.2018.13(Mon Nov 26 17:11:51 UTC 2018)
(GPL source distribution)
Java Runtime: OpenJDK Runtime Environment
JVM: OpenJDK 64-Bit Server VM
Java Version: 11.0.15+10
Operating System: Linux
OS Version: 5.13.0-1025-azure
Default Encoding: UTF-8
Language: en
Country: null
--></g></svg>